# xmcd
#
# Track frame offsets:
# 150
# 12247
# 24707
# 39326
# 59572
# 69385
# 87154
# 97077
# 104994
# 122377
# 136763
# 149317
# 164773
# 176798
# 185108
# 206831
# 218999
# 236359
# 240502
#
# Disc length: 3299 seconds
#
#
# Revision: 0
# Processed by: cddbd v1.5.1PL2 Copyright (c) Steve Scherf et al.
# Submitted via: FreeRIP 2.945 
#
DISCID=1c0ce113
DTITLE=The Blood Brothers - Crimes
DYEAR=2005
DGENRE=Blues
TTITLE0=Feed me to the forest
TTITLE1=Tarsh flavored trash
TTITLE2=Love rhymes with hideous car wreck
TTITLE3=Peacock skeleton with crooked feathers
TTITLE4=Teen heat
TTITLE5=Rats and rats and rats for candy
TTITLE6=Crimes
TTITLE7=My first kiss at the public execution
TTITLE8=Live at the apocalypse cabaret
TTITLE9=Beautiful horses
TTITLE10=Wolf party
TTITLE11=Celebrator
TTITLE12=Devastator
TTITLE13=Special a
TTITLE14=Special b
TTITLE15=Special c
TTITLE16=Special d
TTITLE17=Special e
TTITLE18=Special f
EXTD=Hard to (h)ear
EXTT0=
EXTT1=
EXTT2=
EXTT3=
EXTT4=
EXTT5=
EXTT6=
EXTT7=
EXTT8=
EXTT9=
EXTT10=
EXTT11=
EXTT12=
EXTT13=
EXTT14=
EXTT15=
EXTT16=
EXTT17=
EXTT18=
PLAYORDER=
